<mxfile host="65bd71144e">
    <diagram id="9Twl_4rBBzMdephPHlIG" name="project overview">
        <mxGraphModel dx="562" dy="932" grid="1" gridSize="10" guides="1" tooltips="1" connect="1" arrows="1" fold="1" page="0" pageScale="1" pageWidth="827" pageHeight="1169" math="0" shadow="0">
            <root>
                <mxCell id="0"/>
                <mxCell id="1" parent="0"/>
                <mxCell id="2" value="&lt;h1&gt;short url&lt;/h1&gt;&lt;p&gt;&lt;br&gt;&lt;/p&gt;" style="text;html=1;strokeColor=none;fillColor=none;spacing=5;spacingTop=-20;whiteSpace=wrap;overflow=hidden;rounded=0;" parent="1" vertex="1">
                    <mxGeometry x="10" y="-90" width="620" height="260" as="geometry"/>
                </mxCell>
                <mxCell id="16" value="&lt;h1&gt;&lt;font style=&quot;font-size: 12px;&quot;&gt;Functional Requirements&lt;/font&gt;&lt;/h1&gt;&lt;div&gt;&lt;font style=&quot;font-size: 12px;&quot;&gt;1. create short url&lt;/font&gt;&lt;/div&gt;&lt;div&gt;&lt;font style=&quot;font-size: 12px;&quot;&gt;2. redirect to long url&amp;nbsp;&lt;br&gt;3. get no of clicks&lt;/font&gt;&lt;/div&gt;&lt;div&gt;&lt;font style=&quot;font-size: 12px;&quot;&gt;4. get no of time url was shortened&lt;/font&gt;&lt;/div&gt;&lt;div&gt;&lt;font style=&quot;font-size: 12px;&quot;&gt;5. get all the data for short urls&lt;/font&gt;&lt;/div&gt;&lt;div&gt;&lt;font style=&quot;font-size: 12px;&quot;&gt;&lt;br&gt;&lt;/font&gt;&lt;/div&gt;" style="text;html=1;strokeColor=none;fillColor=none;spacing=5;spacingTop=-20;whiteSpace=wrap;overflow=hidden;rounded=0;" parent="1" vertex="1">
                    <mxGeometry x="10" y="-60" width="190" height="200" as="geometry"/>
                </mxCell>
                <mxCell id="17" value="&lt;h1&gt;&lt;font style=&quot;font-size: 12px;&quot;&gt;Non-functional Requirements&lt;/font&gt;&lt;/h1&gt;&lt;div&gt;&lt;span style=&quot;background-color: initial;&quot;&gt;1. high availability&lt;/span&gt;&lt;br&gt;&lt;/div&gt;&lt;div&gt;&lt;span style=&quot;background-color: initial;&quot;&gt;2. low latency&lt;/span&gt;&lt;/div&gt;&lt;div&gt;&lt;span style=&quot;background-color: initial;&quot;&gt;3.&amp;nbsp; unique for each long url&lt;/span&gt;&lt;/div&gt;&lt;div&gt;&lt;br&gt;&lt;/div&gt;&lt;div&gt;&lt;br&gt;&lt;/div&gt;" style="text;html=1;strokeColor=none;fillColor=none;spacing=5;spacingTop=-20;whiteSpace=wrap;overflow=hidden;rounded=0;" parent="1" vertex="1">
                    <mxGeometry x="215" y="-60" width="190" height="180" as="geometry"/>
                </mxCell>
                <mxCell id="21" value="Legends" style="text;html=1;strokeColor=none;fillColor=none;align=left;verticalAlign=middle;whiteSpace=wrap;rounded=0;fontSize=12;" parent="1" vertex="1">
                    <mxGeometry x="10" y="180" width="60" height="30" as="geometry"/>
                </mxCell>
                <mxCell id="24" value="user interaction" style="text;html=1;strokeColor=none;fillColor=none;align=left;verticalAlign=middle;whiteSpace=wrap;rounded=0;fontSize=12;" parent="1" vertex="1">
                    <mxGeometry x="10" y="210" width="100" height="30" as="geometry"/>
                </mxCell>
                <mxCell id="25" value="" style="endArrow=none;html=1;fontSize=12;fillColor=#FF0000;strokeColor=#FF0000;" parent="1" edge="1">
                    <mxGeometry width="50" height="50" relative="1" as="geometry">
                        <mxPoint x="110" y="224.5" as="sourcePoint"/>
                        <mxPoint x="190" y="224.5" as="targetPoint"/>
                    </mxGeometry>
                </mxCell>
                <mxCell id="27" value="load balancer" style="text;html=1;strokeColor=none;fillColor=none;align=left;verticalAlign=middle;whiteSpace=wrap;rounded=0;fontSize=12;" parent="1" vertex="1">
                    <mxGeometry x="10" y="230" width="100" height="30" as="geometry"/>
                </mxCell>
                <mxCell id="28" value="" style="endArrow=none;html=1;fontSize=12;fillColor=#FF0000;strokeColor=#FF8000;" parent="1" edge="1">
                    <mxGeometry width="50" height="50" relative="1" as="geometry">
                        <mxPoint x="110" y="244.5" as="sourcePoint"/>
                        <mxPoint x="190" y="244.5" as="targetPoint"/>
                    </mxGeometry>
                </mxCell>
                <mxCell id="30" value="backend services" style="text;html=1;strokeColor=none;fillColor=none;align=left;verticalAlign=middle;whiteSpace=wrap;rounded=0;fontSize=12;" parent="1" vertex="1">
                    <mxGeometry x="10" y="250" width="100" height="30" as="geometry"/>
                </mxCell>
                <mxCell id="31" value="" style="endArrow=none;html=1;fontSize=12;fillColor=#FF0000;strokeColor=#FFFF00;" parent="1" edge="1">
                    <mxGeometry width="50" height="50" relative="1" as="geometry">
                        <mxPoint x="110" y="264.5" as="sourcePoint"/>
                        <mxPoint x="190" y="264.5" as="targetPoint"/>
                    </mxGeometry>
                </mxCell>
                <mxCell id="32" value="Database/storage" style="text;html=1;strokeColor=none;fillColor=none;align=left;verticalAlign=middle;whiteSpace=wrap;rounded=0;fontSize=12;" parent="1" vertex="1">
                    <mxGeometry x="10" y="270" width="100" height="30" as="geometry"/>
                </mxCell>
                <mxCell id="33" value="" style="endArrow=none;html=1;fontSize=12;fillColor=#FF0000;strokeColor=#80FF00;" parent="1" edge="1">
                    <mxGeometry width="50" height="50" relative="1" as="geometry">
                        <mxPoint x="110" y="284.5" as="sourcePoint"/>
                        <mxPoint x="190" y="284.5" as="targetPoint"/>
                    </mxGeometry>
                </mxCell>
                <mxCell id="88" value="postgres" style="shape=cylinder3;whiteSpace=wrap;html=1;boundedLbl=1;backgroundOutline=1;size=15;strokeColor=#80FF00;fontSize=12;fillColor=none;" parent="1" vertex="1">
                    <mxGeometry x="240" y="210" width="60" height="80" as="geometry"/>
                </mxCell>
                <mxCell id="95" value="Storage Legends" style="text;html=1;strokeColor=none;fillColor=none;align=left;verticalAlign=middle;whiteSpace=wrap;rounded=0;fontSize=12;" parent="1" vertex="1">
                    <mxGeometry x="240" y="180" width="100" height="30" as="geometry"/>
                </mxCell>
                <mxCell id="rB6Td3dLMW9adQ0DOQXu-97" value="User sends long url and gets short url" style="rounded=0;whiteSpace=wrap;html=1;fillColor=none;strokeColor=#FF0000;" vertex="1" parent="1">
                    <mxGeometry x="10" y="432" width="120" height="60" as="geometry"/>
                </mxCell>
                <mxCell id="rB6Td3dLMW9adQ0DOQXu-99" value="generate short url" style="rounded=0;whiteSpace=wrap;html=1;fillColor=none;strokeColor=#FFFF00;" vertex="1" parent="1">
                    <mxGeometry x="240" y="432" width="120" height="60" as="geometry"/>
                </mxCell>
                <mxCell id="rB6Td3dLMW9adQ0DOQXu-100" value="LB" style="rounded=0;whiteSpace=wrap;html=1;fillColor=none;strokeColor=#FF9933;" vertex="1" parent="1">
                    <mxGeometry x="170" y="432" width="20" height="60" as="geometry"/>
                </mxCell>
                <mxCell id="rB6Td3dLMW9adQ0DOQXu-101" value="&lt;font style=&quot;font-size: 18px;&quot;&gt;get short url&lt;/font&gt;" style="text;html=1;strokeColor=none;fillColor=none;align=left;verticalAlign=middle;whiteSpace=wrap;rounded=0;fontSize=12;" vertex="1" parent="1">
                    <mxGeometry x="10" y="360" width="170" height="30" as="geometry"/>
                </mxCell>
                <mxCell id="rB6Td3dLMW9adQ0DOQXu-102" value="store short url and count" style="shape=cylinder3;whiteSpace=wrap;html=1;boundedLbl=1;backgroundOutline=1;size=15;strokeColor=#80FF00;fontSize=12;fillColor=none;" vertex="1" parent="1">
                    <mxGeometry x="400" y="422" width="60" height="80" as="geometry"/>
                </mxCell>
                <mxCell id="rB6Td3dLMW9adQ0DOQXu-104" value="user clicks short url" style="rounded=0;whiteSpace=wrap;html=1;fillColor=none;strokeColor=#FF0000;" vertex="1" parent="1">
                    <mxGeometry x="10" y="692" width="120" height="60" as="geometry"/>
                </mxCell>
                <mxCell id="rB6Td3dLMW9adQ0DOQXu-105" value="get long url for short url and redirect" style="rounded=0;whiteSpace=wrap;html=1;fillColor=none;strokeColor=#FFFF00;" vertex="1" parent="1">
                    <mxGeometry x="240" y="692" width="120" height="60" as="geometry"/>
                </mxCell>
                <mxCell id="rB6Td3dLMW9adQ0DOQXu-106" value="LB" style="rounded=0;whiteSpace=wrap;html=1;fillColor=none;strokeColor=#FF9933;" vertex="1" parent="1">
                    <mxGeometry x="170" y="692" width="20" height="60" as="geometry"/>
                </mxCell>
                <mxCell id="rB6Td3dLMW9adQ0DOQXu-107" value="store click count" style="shape=cylinder3;whiteSpace=wrap;html=1;boundedLbl=1;backgroundOutline=1;size=15;strokeColor=#80FF00;fontSize=12;fillColor=none;" vertex="1" parent="1">
                    <mxGeometry x="400" y="682" width="60" height="80" as="geometry"/>
                </mxCell>
                <mxCell id="rB6Td3dLMW9adQ0DOQXu-109" value="" style="endArrow=classic;startArrow=classic;html=1;strokeColor=#FFFFFF;fontSize=12;fillColor=#FF0000;curved=1;" edge="1" parent="1">
                    <mxGeometry width="50" height="50" relative="1" as="geometry">
                        <mxPoint x="130" y="461.5" as="sourcePoint"/>
                        <mxPoint x="170" y="462" as="targetPoint"/>
                    </mxGeometry>
                </mxCell>
                <mxCell id="rB6Td3dLMW9adQ0DOQXu-110" value="" style="endArrow=classic;startArrow=classic;html=1;strokeColor=#FFFFFF;fontSize=12;fillColor=#FF0000;curved=1;" edge="1" parent="1">
                    <mxGeometry width="50" height="50" relative="1" as="geometry">
                        <mxPoint x="130" y="721.5" as="sourcePoint"/>
                        <mxPoint x="170" y="722" as="targetPoint"/>
                    </mxGeometry>
                </mxCell>
                <mxCell id="rB6Td3dLMW9adQ0DOQXu-111" value="" style="endArrow=classic;startArrow=classic;html=1;strokeColor=#FFFFFF;fontSize=12;fillColor=#FF0000;curved=1;entryX=0;entryY=0.5;entryDx=0;entryDy=0;" edge="1" parent="1" target="rB6Td3dLMW9adQ0DOQXu-99">
                    <mxGeometry width="50" height="50" relative="1" as="geometry">
                        <mxPoint x="190" y="461.5" as="sourcePoint"/>
                        <mxPoint x="230" y="462" as="targetPoint"/>
                    </mxGeometry>
                </mxCell>
                <mxCell id="rB6Td3dLMW9adQ0DOQXu-112" value="" style="endArrow=classic;startArrow=classic;html=1;strokeColor=#FFFFFF;fontSize=12;fillColor=#FF0000;curved=1;entryX=0;entryY=0.5;entryDx=0;entryDy=0;" edge="1" parent="1" target="rB6Td3dLMW9adQ0DOQXu-105">
                    <mxGeometry width="50" height="50" relative="1" as="geometry">
                        <mxPoint x="190" y="721.5" as="sourcePoint"/>
                        <mxPoint x="230" y="722" as="targetPoint"/>
                    </mxGeometry>
                </mxCell>
                <mxCell id="rB6Td3dLMW9adQ0DOQXu-114" value="" style="endArrow=classic;startArrow=classic;html=1;strokeColor=#FFFFFF;fontSize=12;fillColor=#FF0000;curved=1;" edge="1" parent="1">
                    <mxGeometry width="50" height="50" relative="1" as="geometry">
                        <mxPoint x="360" y="461.5" as="sourcePoint"/>
                        <mxPoint x="400" y="462" as="targetPoint"/>
                    </mxGeometry>
                </mxCell>
                <mxCell id="rB6Td3dLMW9adQ0DOQXu-117" value="" style="endArrow=classic;startArrow=classic;html=1;strokeColor=#FFFFFF;fontSize=12;fillColor=#FF0000;curved=1;" edge="1" parent="1">
                    <mxGeometry width="50" height="50" relative="1" as="geometry">
                        <mxPoint x="360" y="721.5" as="sourcePoint"/>
                        <mxPoint x="400" y="722" as="targetPoint"/>
                    </mxGeometry>
                </mxCell>
                <mxCell id="rB6Td3dLMW9adQ0DOQXu-120" value="&lt;font style=&quot;font-size: 18px;&quot;&gt;redirect to long url&lt;/font&gt;" style="text;html=1;strokeColor=none;fillColor=none;align=left;verticalAlign=middle;whiteSpace=wrap;rounded=0;fontSize=12;" vertex="1" parent="1">
                    <mxGeometry x="10" y="640" width="170" height="30" as="geometry"/>
                </mxCell>
                <mxCell id="rB6Td3dLMW9adQ0DOQXu-121" value="redis" style="whiteSpace=wrap;html=1;aspect=fixed;strokeColor=#80FF00;fontSize=12;fillColor=none;" vertex="1" parent="1">
                    <mxGeometry x="360" y="220" width="70" height="70" as="geometry"/>
                </mxCell>
                <mxCell id="rB6Td3dLMW9adQ0DOQXu-122" value="get next number to generate short url" style="whiteSpace=wrap;html=1;aspect=fixed;strokeColor=#80FF00;fontSize=12;fillColor=none;" vertex="1" parent="1">
                    <mxGeometry x="265" y="530" width="70" height="70" as="geometry"/>
                </mxCell>
                <mxCell id="rB6Td3dLMW9adQ0DOQXu-123" value="" style="endArrow=classic;startArrow=classic;html=1;strokeColor=#FFFFFF;fontSize=12;fillColor=#FF0000;curved=1;entryX=0.5;entryY=0;entryDx=0;entryDy=0;exitX=0.5;exitY=1;exitDx=0;exitDy=0;" edge="1" parent="1" source="rB6Td3dLMW9adQ0DOQXu-99" target="rB6Td3dLMW9adQ0DOQXu-122">
                    <mxGeometry width="50" height="50" relative="1" as="geometry">
                        <mxPoint x="275" y="544.5" as="sourcePoint"/>
                        <mxPoint x="325" y="545" as="targetPoint"/>
                    </mxGeometry>
                </mxCell>
            </root>
        </mxGraphModel>
    </diagram>
</mxfile>